0
SECTION
2
ENTITIES
0
LINE
8
CASE
10
0.000
20
0.000
30
0
11
76.000
21
0.000
31
0
0
LINE
8
CASE
10
76.000
20
0.000
30
0
11
76.000
21
86.000
31
0
0
LINE
8
CASE
10
76.000
20
86.000
30
0
11
0.000
21
86.000
31
0
0
LINE
8
CASE
10
0.000
20
86.000
30
0
11
0.000
21
0.000
31
0
0
LINE
8
MX_PLATE_CUTOUT
10
21.475
20
9.500
30
0
11
35.475
21
9.500
31
0
0
LINE
8
MX_PLATE_CUTOUT
10
35.475
20
9.500
30
0
11
35.475
21
23.500
31
0
0
LINE
8
MX_PLATE_CUTOUT
10
35.475
20
23.500
30
0
11
21.475
21
23.500
31
0
0
LINE
8
MX_PLATE_CUTOUT
10
21.475
20
23.500
30
0
11
21.475
21
9.500
31
0
0
CIRCLE
8
SW_CENTER
10
28.475
20
16.500
30
0
40
0.500
0
LINE
8
MX_PLATE_CUTOUT
10
40.525
20
9.500
30
0
11
54.525
21
9.500
31
0
0
LINE
8
MX_PLATE_CUTOUT
10
54.525
20
9.500
30
0
11
54.525
21
23.500
31
0
0
LINE
8
MX_PLATE_CUTOUT
10
54.525
20
23.500
30
0
11
40.525
21
23.500
31
0
0
LINE
8
MX_PLATE_CUTOUT
10
40.525
20
23.500
30
0
11
40.525
21
9.500
31
0
0
CIRCLE
8
SW_CENTER
10
47.525
20
16.500
30
0
40
0.500
0
LINE
8
MX_PCB
10
12.000
20
7.000
30
0
11
64.000
21
7.000
31
0
0
LINE
8
MX_PCB
10
64.000
20
7.000
30
0
11
64.000
21
31.000
31
0
0
LINE
8
MX_PCB
10
64.000
20
31.000
30
0
11
12.000
21
31.000
31
0
0
LINE
8
MX_PCB
10
12.000
20
31.000
30
0
11
12.000
21
7.000
31
0
0
CIRCLE
8
MX_PCB_M2_HOLE
10
15.500
20
16.500
30
0
40
1.100
0
CIRCLE
8
MX_PCB_M2_HOLE
10
60.500
20
16.500
30
0
40
1.100
0
LINE
8
MX_PCB_J1_BODY_BOTTOM
10
33.000
20
26.150
30
0
11
43.000
21
26.150
31
0
0
LINE
8
MX_PCB_J1_BODY_BOTTOM
10
43.000
20
26.150
30
0
11
43.000
21
30.400
31
0
0
LINE
8
MX_PCB_J1_BODY_BOTTOM
10
43.000
20
30.400
30
0
11
33.000
21
30.400
31
0
0
LINE
8
MX_PCB_J1_BODY_BOTTOM
10
33.000
20
30.400
30
0
11
33.000
21
26.150
31
0
0
ENDSEC
0
EOF
